<?xml version="1.0" encoding="utf-8"?>
<!-- Generator: Adobe Illustrator 15.0.2, SVG Export Plug-In . SVG Version: 6.00 Build 0)  -->
<!DOCTYPE svg PUBLIC "-//W3C//DTD SVG 1.1//EN" "http://www.w3.org/Graphics/SVG/1.1/DTD/svg11.dtd">
<svg version="1.1" id="Layer_1" xmlns="http://www.w3.org/2000/svg" xmlns:xlink="http://www.w3.org/1999/xlink" x="0px" y="0px"
	 width="30px" height="30px" viewBox="0 0 30 30" enable-background="new 0 0 30 30" xml:space="preserve">
<g>
	<polygon fill="#00944F" points="30,30 30,0.016 0,0 0,29.981 	"/>
	<g>
		<polygon fill="#FFFFFF" points="8.125,22.877 10.056,22.898 10.056,22.161 8.125,22.161 8.125,20.951 10.168,20.959 
			10.168,20.221 7.254,20.221 7.254,24.992 10.266,24.992 10.266,24.258 8.125,24.24 		"/>
		<path fill="#FFFFFF" d="M15.54,20.221h-1.024l-0.551,0.994c-0.167,0.296-0.273,0.518-0.395,0.799l-0.022,0.006
			c-0.125-0.26-0.256-0.493-0.421-0.812l-0.556-0.988l-1.024,0.016l1.441,2.352l-1.503,2.404l1.034,0.009l0.512-0.95
			c0.213-0.389,0.344-0.644,0.466-0.9h0.006c0.145,0.256,0.29,0.516,0.533,0.926l0.542,0.917H15.6l-1.541-2.446L15.54,20.221z"/>
		<polygon fill="#FFFFFF" points="17.006,24.992 17.891,24.992 17.891,20.237 17.006,20.221 		"/>
		<polygon fill="#FFFFFF" points="18.944,20.966 20.404,20.973 20.404,25.002 21.265,25.002 21.265,20.973 22.748,20.973 
			22.748,20.237 18.944,20.221 		"/>
		<polygon fill="#FFFFFF" points="22.759,10.667 22.759,5.008 19.613,5.001 19.613,7.819 16.669,7.819 16.669,4.197 13.334,4.178 
			13.334,7.807 10.397,7.819 10.397,5.001 7.238,5.001 7.238,10.661 13.334,10.661 13.334,15.935 10.391,15.935 10.391,12.29 
			7.238,12.29 7.238,18.834 22.759,18.848 22.759,12.29 19.613,12.29 19.613,15.935 16.669,15.935 16.669,10.661 		"/>
	</g>
</g>
</svg>
